<svg id="a8b149d3-2e56-4b53-9bdc-54eb9df209f0" data-name="a6abebc5-9c1e-44e8-9a53-5aa0002c79af" xmlns="http://www.w3.org/2000/svg" viewBox="0 0 288.52 319.3"><defs><style>.b98678aa-e589-4ec2-9394-4406707f6efd{fill:#fff;stroke:#000;stroke-miterlimit:10;}.fd6d9e98-ecb2-4f6b-ba7e-a1f2ceb0e259{fill:#960;}</style></defs><path class="b98678aa-e589-4ec2-9394-4406707f6efd" d="M205.11,300.38l-2.93-.91c-.5-.65-1-1.35-1.52-2Q188,284,175.23,270.52c-2.29-2.43-4.66-4.79-7-7.18-.72-.93-1.43-1.87-2.15-2.81q-2.45-6-4.91-12.1c.26-3.6-1.33-6.64-4.84-6.59s-8.21-1-9.31,4.52c-.57,1.8-1.55,3.58-1.64,5.4-.57,10.87-.85,21.75-1.45,32.61-.11,2-1.22,3.94-1.86,5.9l-2.85-8.91q-.65-5.4-1.27-10.8l.09-9.08c0-3.81.56-7.71,0-11.43a13,13,0,0,0-3.77-7.27c-1.77-1.55-4.85-1.61-8.55-2.67L120,253.4l-4,8.9q-1.87,15.13-3.74,30.27c-2.43,6.89-4.8,13.8-7.33,20.65-.45,1.22-1.58,2.19-2.39,3.27l-1.52-.35v-47.6l.09-14c2.33-6.61,4.67-13.22,7.5-21.24-2.33-2-5.71-4.81-9.6-8.07l-7,6.14-16.18,16-5.65,5.35-4.9.79q3.45-5.43,6.89-10.86L86,224.46l6.71-5.23-5.6-11-8.94.44a49.94,49.94,0,0,0-4.85,2C66.7,214.18,60.15,217.79,56,224.4l-3.78,2.36c-1.92,1.49-3.82,3-5.75,4.45-2.77,2.1-5.56,4.18-8.35,6.27l-12.69,4.79.34,1H18.33c.48-6.29,7.44-4.08,9.62-8.08S34,228,37,224.42s6-6.83,9-10.24l14-15.72,8.67-5.78-.36-.54L80.4,188.6c-1.17-5.08,2.07-10.82-4.1-14.21a27.1,27.1,0,0,0-3.8-.84c-9-.69-18-1.23-27-2-1.45-.13-2.8-1.27-4.2-1.94l2-2c10-.35,19.93-.75,29.89-1,3.16-.08,6-.38,7-4.08.81-3.74,2.91-7.46.8-10.47a67,67,0,0,0-6.3-3.79c-5.77-2.58-11.62-5-17.44-7.45a24.64,24.64,0,0,0-3.63-1.33c-7.47-1.56-15-3-22.43-4.55-3.65-.75-7.28-1.6-10.92-2.41h0l-7.08-6.32c13.44,0,26.52-.26,39.58.1,7.85.21,15.68,1.39,23.52,2.14,2.43,1.49,4.78,3.14,7.31,4.44a67.5,67.5,0,0,0,6.59,2.56c2-4.63,3.45-7.89,4.93-11.29L82.93,109.58c-1.6-2.16-3.38-4.21-4.76-6.5-2.48-4.13-4.73-8.4-7.07-12.62L81.18,96.4l21.13,21c6-2.65,7.68-5.25,6.94-11.17a53.39,53.39,0,0,0-10-25.79L86.81,60.51l-2-4.91L79.05,42.53a51.31,51.31,0,0,1-1.79-7,11.83,11.83,0,0,1,1.15-6.08c3,8.87,8.7,15.43,15.55,21.11L113,70.7c8.66,9.25,12.63,20.82,15.47,33.48l8.3-3.52,1.38-.21v-34q1.47-7.59,3-15.19h1.71A20.55,20.55,0,0,1,144,55.69c.51,9.07.8,18.14,1.35,27.2.1,1.65,1,3.25,1.56,4.87v12.72l9.05,3.09c10.45-12.72,15.7-27.32,15.06-44,.39-2.26.79-4.52,1.18-6.78a21.39,21.39,0,0,0,1.62-3.42c1.76-6.28,3.4-12.59,5.09-18.89l1.07-3,3-.62c-.33,5.05-.87,9.78-.9,14.51-.1,14.47,0,28.94.09,43.41a25,25,0,0,0,.94,4.77c-1.3,4-2.14,8.33-4,12.11-3.78,7.76-4,7.65,2.25,15.39l18.82-18.33c3-2.58,6.23-4.92,8.89-7.79,2.28-2.48,4.28-4.9,8-4.44-.48,1.55-.66,3.3-1.51,4.61-2.76,4.2-5.77,8.24-8.69,12.34l-16.48,20,5.74,9.83c12.67,1.91,20.94-4.58,28.93-11.71,1.42-.94,2.92-1.77,4.24-2.83,4.6-3.7,9.13-7.47,13.69-11.22l4.15-2.77c6.37-1.85,12.18-6.12,19.9-4.82-5.65,5.45-10.85,10.49-16.06,15.52a79.75,79.75,0,0,0-6.53,6.6c-3.08,3.89-5.83,8.06-8.71,12.11L228,141.39c-5.61,7.74-15,9-24.1,13.15l3.88,8.1c.56,1.29,1.13,2.57,2.09,4.74h33.39l5.89,1.06c-.34,1.31-.68,2.63-1,3.95l-9.91.29h-12.1l-16.92,1.68c-4,3.93-4.65,6.36-3.66,15.28l9.51,6c.93.89,1.71,2.07,2.81,2.63,9.55,4.84,20.2,4.25,30.37,6.07,10.59,1.48,20.55,4.4,28.4,12.64-12.77-3-25.63-1.6-38.45-1.39l-29-1.93-7.76-5c-4.81.76-8.45,6-7.67,11.85l4.57,4L212,242.69l6,10.81-5.88-2-1-2L195,233.76l-9.44-7.46-8.93,8.21c.17,2.41.3,4.21.43,6,1,3.6,1.36,7.55,3.11,10.73,2.8,5.06,6.52,9.6,9.85,14.37l2.26,3.84,3.77,5.1q4.6,10.44,9.19,20.89C205.23,297.09,205.17,298.74,205.11,300.38ZM143.17,112.12c-7,1.57-13.54,2.36-19.57,4.58-8.7,3.2-15.6,9.3-21.6,16.37-6.9,8.2-11.77,17.53-13.27,28.14a82.31,82.31,0,0,0-.31,23.51c2.37,16.54,10.86,28.82,22.75,39.78,5.4,5,12.06,6.57,18.2,9.52,3.19,1.53,7,2,10.58,2.46,12.93,1.53,23.69-4,33.87-11A54.36,54.36,0,0,0,192.43,203a78.92,78.92,0,0,0,6.47-23.78A56.89,56.89,0,0,0,197,158c-2-7.11-5.88-13.75-9.35-20.39-4.82-9.23-13.46-14.92-22-19.59C159,114.33,150.65,113.93,143.17,112.12Z"/><path class="fd6d9e98-ecb2-4f6b-ba7e-a1f2ceb0e259" d="M60,198.46,46,214.2c-1.12-2.34-1.78-5.11-3.44-7-12.51-13.89-25.24-27.59-37.84-41.4C3.09,164,1.79,161.92,0,159.5c5-5.71,10.15-11,14.68-16.79,2.35-3,3.67-6.79,5.46-10.22,3.64.81,7.27,1.66,10.92,2.41,7.47,1.54,15,3,22.43,4.55a24.64,24.64,0,0,1,3.63,1.33l-3.07,1.32,4.31,1.5V164a45.53,45.53,0,0,0,21.7-1.46c-1,3.7-3.83,4-7,4.08-10,.29-19.92.69-29.89,1-1-8.93-2-17.87-3.08-27.48l-4.5-.28c2.37,9.86-6.82,12.8-10.18,19.07l3.59,6.3,7.38,3.11H30.44c.77,5.42,4.43,5.09,7.78,5.24,5.49,6.2,11,12.37,16.46,18.59C56.49,194.21,58.2,196.35,60,198.46Z"/><path class="fd6d9e98-ecb2-4f6b-ba7e-a1f2ceb0e259" d="M217.15,86.45c-3.76-.46-5.76,2-8,4.44-2.66,2.87-5.9,5.21-8.89,7.79.41-1.76.83-3.52,1.4-6L188.91,78.49l-4.68,9.08q0-12.57.07-25.14c.47-5.24.94-10.47,1.46-16.3h60.53v57.49c-3-2.36-6.1-4.66-9.06-7.11-5.5-4.56-8-10.24-7.15-17.56.52-4.5.09-9.11.09-14H187.42c.1,1.93.18,3.29.3,5.5,5.37,0,10.33-.26,15.24.11a13.46,13.46,0,0,1,6.59,2.51c3.79,2.79,7.21,6.07,10.78,9.15Z"/><path class="fd6d9e98-ecb2-4f6b-ba7e-a1f2ceb0e259" d="M79.05,42.53,84.86,55.6c-4.92,11.84-16.21,7.91-25.76,9.52V73.5c-.51,3.2-1.43,6.4-1.42,9.59,0,3.57,1.23,7.13,1.31,10.7.2,9.55.07,19.1.07,29,3.92.82,8.58,1.63,13.15,2.83,1.45.39,2.64,1.81,4,2.76-7.84-.75-15.67-1.93-23.52-2.14-13.06-.36-26.14-.1-39.58-.1l7.08,6.32C12.26,131,7.27,125,1.42,120.32c-.47-.38-.17-1.72-.25-3.1,9.71,4.87,18.85,9.93,29.59,7.89,1.28-1.91,2.34-3.49,3.88-5.77l2.49,5.6,4.38.33V46.21c2.4-.27,4.32-.65,6.24-.66,8.32-.07,16.65.16,25-.17C74.86,45.29,76.94,43.52,79.05,42.53Z"/><path class="fd6d9e98-ecb2-4f6b-ba7e-a1f2ceb0e259" d="M212.15,251.46l5.88,2,12,.64c0-11.24.08-21.48-.14-31.71,0-1-1.86-2-2.85-3l-2,.28c1.94,8.81-3.57,13.52-8.68,18.48-1.51,1.46-2.94,3-4.41,4.52l-13.78-18.22,4.17,1.08c3.57-3.26,7.28-6.39,6.69-11.92l29,1.93,7.5,3.46v52.73a61.28,61.28,0,0,1-6.35.67c-12.32.06-24.64-.06-37,.13-2.09,0-4.16,1.31-6.25,2l-3.77-5.1c2.43-1.52,5.14-2.73,7.24-4.62,4.16-3.76,8-7.9,11.94-11.88l1.07.92Z"/><path class="fd6d9e98-ecb2-4f6b-ba7e-a1f2ceb0e259" d="M113,70.75,94,50.61l4.36-.5L143.63,0,174.3,33.68l4.64-3.23c-1.69,6.3-3.33,12.61-5.09,18.89a21.39,21.39,0,0,1-1.62,3.42l-.15-7.36,2.27-5.34c-3.18-.22-5.58-.67-7.93-.5-7.93.56-15.16.17-19.72-8-1.55-2.8-4.5-2.13-6.7.34-9.73,10.89-19.5,21.76-29.39,32.78C111.33,66.51,112.15,68.63,113,70.75Z"/><path class="fd6d9e98-ecb2-4f6b-ba7e-a1f2ceb0e259" d="M235.82,134.13c2.88-4,5.63-8.22,8.71-12.11a79.75,79.75,0,0,1,6.53-6.6c1.28,2.34,2.19,5,3.91,7,6.88,7.87,14,15.49,21,23.26,4.09,4.54,8.07,9.18,12.55,14.29C276,172,266,186.4,252.9,197.91l-1.82-.94c0-5.91.28-11.83-.14-17.7-.17-2.34-1.89-4.56-2.9-6.83.33-1.32.67-2.64,1-3.95a39,39,0,0,0,4.75-1.93c2.13-1.19,5.07-2.22,5.91-4.1a8,8,0,0,0-1-7c-5.81-6.83-12.1-13.26-18.39-19.66-.85-.86-2.73-.73-4.12-1.05Z"/><path class="fd6d9e98-ecb2-4f6b-ba7e-a1f2ceb0e259" d="M180.29,278.64l-37,40.66L116,289l-3.68,3.57q1.88-15.13,3.74-30.27c.07.49.15,1,.23,1.47V278c9.46,1.58,22.49-3.4,21.08,14.23l1.88-1.2v-9.62l2.85,8.91c-.11,1.51-.22,3-.32,4.53l1.42.55,2-3c4.67-12.06,15.37-19.32,23-29,2.34,2.39,4.71,4.75,7,7.18"/><path class="fd6d9e98-ecb2-4f6b-ba7e-a1f2ceb0e259" d="M65.29,253.48l4.9-.79c1.76.61,3.51,1.69,5.28,1.73,8.56.19,17.11.09,25.67.1l-.09,14c-3.89,3.86-8.73,4-13.83,4-12.8-.18-25.61,0-38.42-.07-6.26,0-7.55-1.35-7.6-7.69-.05-7.48.17-15-.15-22.44-.07-1.64-1.91-3.2-2.94-4.8,2.79-2.09,5.58-4.17,8.35-6.27,1.93-1.46,3.83-3,5.75-4.45,1.79,2,3.58,4,5.39,6l1.54-.56V253Z"/><path class="fd6d9e98-ecb2-4f6b-ba7e-a1f2ceb0e259" d="M226.08,172.65h12.1l6.92,3c1,9.19,2,18.89,3.09,28.59-10.17-1.82-20.82-1.23-30.37-6.07-1.1-.56-1.88-1.74-2.81-2.63l14.78,3.25V179Z"/><path class="fd6d9e98-ecb2-4f6b-ba7e-a1f2ceb0e259" d="M184.3,62.43q0,12.57-.07,25.14c-.37.65-.73,1.3-1.1,1.94a25,25,0,0,1-.94-4.77c-.11-14.47-.19-28.94-.09-43.41,0-4.73.57-9.46.9-14.51l-3,.62,7.09-13,1.32.59c-1.45,7.7-3.51,15.35-4.18,23.12C183.55,46.17,184.23,54.32,184.3,62.43Z"/><path class="fd6d9e98-ecb2-4f6b-ba7e-a1f2ceb0e259" d="M138.13,66.51l-1.68-2.68H121l-1.08-1.39,14.66-17.2,3.83,3.09,1.5-6.53c10.42,6.52,21.51,2.78,32.16,3.6l.15,7.36c-.39,2.26-.79,4.52-1.18,6.78-6.42,6.3-15,4.48-24.11,5.56V87.76c-.54-1.62-1.46-3.22-1.56-4.87-.55-9.06-.84-18.13-1.35-27.2a20.41,20.41,0,0,0-1.24-4.33h-1.71Q139.62,58.93,138.13,66.51Z"/><path class="fd6d9e98-ecb2-4f6b-ba7e-a1f2ceb0e259" d="M225.14,121.54c-2.12-3.4-3.95-7-6.44-10.13-2.35-2.91-5.4-5.24-8.6-8.26l-3.15.25c2.92-4.1,5.93-8.14,8.69-12.34.85-1.31,1-3.06,1.51-4.61l3.18-4.19c6,7.54,12,15.15,18.17,22.58,1.06,1.27,3,1.79,4.57,2.65-4.56,3.75-9.09,7.52-13.69,11.22C228.06,119.77,226.56,120.6,225.14,121.54Z"/><path class="fd6d9e98-ecb2-4f6b-ba7e-a1f2ceb0e259" d="M99.28,80.41c-3.5-.14-5.43,1.62-7.48,4.52-3,4.22-7,7.68-10.62,11.47L71.1,90.46c-1.65-2.09-3.29-4.19-4.93-6.28A78,78,0,0,0,86.81,60.51Z"/><path class="fd6d9e98-ecb2-4f6b-ba7e-a1f2ceb0e259" d="M190.06,265.62c-3.33-4.77-7.05-9.31-9.85-14.37-1.75-3.18-2.12-7.13-3.11-10.73l5.3,6.83L195,233.76l16.09,15.75c-2.31.47-5.31.18-6.82,1.54C199.28,255.59,194.77,260.72,190.06,265.62Z"/><path class="fd6d9e98-ecb2-4f6b-ba7e-a1f2ceb0e259" d="M243.21,167.38H209.82c-1-2.17-1.53-3.45-2.09-4.74,7.12,3.46,14.4,1.38,22.23,1.47,0-7.22.08-13.63-.09-20,0-.91-1.25-1.79-1.92-2.69l7.87-7.26.41.54c1.09,2.36,1.58,5.45,3.39,7,7.37,6.14,7,14.19,6.22,22.39C245.73,165.22,244.12,166.27,243.21,167.38Z"/><path class="fd6d9e98-ecb2-4f6b-ba7e-a1f2ceb0e259" d="M86,224.46,72.18,242.62c-3.2-8-9.52-13.26-16.19-18.2,4.17-6.61,10.72-10.22,17.34-13.73a49.94,49.94,0,0,1,4.85-2L74.05,215Z"/><path class="fd6d9e98-ecb2-4f6b-ba7e-a1f2ceb0e259" d="M145.2,292.34l-2,3-1.42-.55c.1-1.51.21-3,.32-4.53.64-2,1.75-3.9,1.86-5.9.6-10.86.88-21.74,1.45-32.61.09-1.82,1.07-3.6,1.64-5.4v13l2.53-4.47,11.06-.85c.23-2.32.4-3.95.56-5.58q2.46,6,4.91,12.1c-2.12,1.45-4.36,2.77-6.35,4.39-3.73,3-7.33,6.26-11,9.4l-1.86-.92Z"/><path class="fd6d9e98-ecb2-4f6b-ba7e-a1f2ceb0e259" d="M116.26,263.77c-.08-.49-.16-1-.23-1.47l4-8.9,14.72,1.81c1.27,2.4,2.28,4.34,3.3,6.27l-.09,9.08H118.83l.32-1.42Z"/><path class="fd6d9e98-ecb2-4f6b-ba7e-a1f2ceb0e259" d="M65.1,83.12l1.07,1.06c1.64,2.09,3.28,4.19,4.93,6.28,2.34,4.22,4.59,8.49,7.07,12.62,1.38,2.29,3.16,4.34,4.76,6.5l-7.28-4.77-1.3-1.41-9.7,11A153.54,153.54,0,0,1,65.1,83.12Z"/><path class="fd6d9e98-ecb2-4f6b-ba7e-a1f2ceb0e259" d="M36.39,168.33l4.83,1.25c1.4.67,2.75,1.81,4.2,1.94,9,.8,18,1.34,27,2a27.1,27.1,0,0,1,3.8.84L58,177c-.52,2.65-1,5.14-1.82,9.38L44.56,173.57H38.22c-3.35-.15-7,.18-7.78-5.24Z"/><path class="b98678aa-e589-4ec2-9394-4406707f6efd" d="M144.18,228.46c-17.38-3.7-31.67-9.53-40.44-25.44-7.13-13-9.63-26.4-6.44-40.45,3.91-17.23,12.43-31,30.42-37.72,8.59-3.21,17-4.24,25.24-1.93,6.67,1.86,12.94,5.81,18.85,9.65,7.17,4.66,11.92,12.06,14.41,19.8,3.43,10.65,9.29,21.51,2.69,33.38-2.24,4-2.51,9.12-4.18,13.53-4.93,13-15.08,20.48-27.72,25C152.64,225.87,148.17,227.17,144.18,228.46ZM152.11,165c-1.05-6.31-2.16-12.37-3.06-18.47-.69-4.71-2.75-6.49-8-6.43l-3.44,3.7c-.88,7.34-1.71,14.31-2.52,21l-19.62,3.25-3.27,7.52c6,9.4,16.07,5.21,23.64,7.74,1,8.49-.83,16.88,3.72,24,4,.76,7.85.88,9.1-3.34,1.34-4.53,1.82-9.33,2.47-14,.35-2.55.29-5.16.42-7.88,8.46-1.63,18.42,2.62,23.33-7.75l-4.4-6.6Z"/></svg>